<?xml version="1.0" encoding="utf-8"?>
<svg version="1.1" xmlns="http://www.w3.org/2000/svg" xmlns:xlink="http://www.w3.org/1999/xlink" x="0px" y="0px"
	 viewBox="0 0 510 128" enable-background="new 0 0 510 128" xml:space="preserve">
<g fill="#FFFFFF">
	<polygon opacity="0.12" points="168,0 168,10 178,10 178,84.711 144.711,118 130.568,118 120.568,128 148.854,128 188,88.853 188,0 		"/>
	<polygon opacity="0.25" points="148,0 148,10 158,10 158,76.426 116.426,118 102.285,118 92.285,128 120.568,128 130.568,118 168,80.568 168,10 168,0 		"/>
	<polygon opacity="0.5" points="128,0 128,10 138,10 138,68.142 88.143,118 74,118 64,128 92.285,128 102.285,118 148,72.284 148,10 148,0 		"/>
	<polygon points="0,0 0,128 64,128 128,64 128,0"/>

	<path d="M286.28,0v64.928h-13.979v-25.43h-38.325v25.43H220V0h13.977v25.43h38.325V0H286.28z"/>
	<path d="M355.446,14.068h-45.812V25.43h36.883v14.068h-36.883V50.86h45.812v14.068h-59.968V0h59.968V14.068z"/>
	<path d="M427.047,0v4.78L403.78,32.464l23.267,27.595v4.869h-14.519l-18.036-21.282l-17.854,21.282h-14.519 v-4.779l23.175-27.685L362.119,4.78V0h14.519l18.036,21.372L412.528,0H427.047z"/>
	<path d="M486.563,0c1.862,0,3.606,0.347,5.23,1.038c1.623,0.691,3.034,1.638,4.238,2.84 c1.202,1.203,2.165,2.615,2.886,4.238c0.722,1.623,1.082,3.367,1.082,5.23v51.582h-14.158V44.007h-36.793v20.921h-13.977V13.347 c0-1.863,0.345-3.607,1.035-5.23c0.691-1.623,1.639-3.035,2.843-4.238c1.202-1.202,2.615-2.149,4.238-2.84 C444.811,0.347,446.553,0,448.418,0H486.563z M485.842,29.939V14.068h-36.793v15.871H485.842z"/>

	<path d="M271.13,99.622c1.802,1.65,2.87,4.228,2.87,6.776V119c0,5.024-3.976,9-9,9h-45V74h42.675 c5.024,0,9,3.974,9,8.998v11.476c0,1.427-0.398,3.356-1.33,4.534L271.13,99.622z M226.064,80.074v17.324h36.61 c1.574,0,2.851-1.35,2.851-2.925V82.998c0-1.574-1.276-2.924-2.851-2.924H226.064z M267.924,106.398 c0-1.574-1.35-2.924-2.924-2.924h-38.936v18.449H265c1.574,0,2.924-1.35,2.924-2.924V106.398z"/>
	<path d="M331.599,80.074h-43.2v17.85h34.726v6.15h-34.726v17.85h43.2V128h-49.276V74h49.276V80.074z"/>
	<path d="M384.772,74c5.024,0,9,3.974,9,8.998V128h-6.074v-19.726h-41.85V128h-6.076V82.998 c0-5.024,3.976-8.998,9-8.998H384.772z M387.698,102.198v-19.2c0-1.574-1.352-2.924-2.926-2.924h-36 c-1.574,0-2.924,1.35-2.924,2.924v19.2H387.698z"/>
	<path d="M453.622,74v6.074h-23.925V128h-6.075V80.074h-24V74H453.622z"/>
</g>
</svg>
