<svg version="1.1" xmlns="http://www.w3.org/2000/svg" xmlns:xlink="http://www.w3.org/1999/xlink" viewBox="0 0 156 150">
<path fill="#FFFFFF" d="M52,75L26,60V30L0,15v90l26,15V90l26,15v30l26,15V60L52,45V75z"/>
<g fill="#4F4F4F" >
	<path d="M52,15L26,0L0,15l26,15L52,15z"/>
	<path d="M52,75V45L26,60L52,75z"/>
	<path d="M52,45l26,15l52-30l-26-15L52,45z"/>
</g>
<g fill="#232323">
	<path d="M26,60l26-15V15L26,30V60z"/>
	<path d="M26,120l26-15L26,90V120z"/>
	<path d="M78,60v90l78-45V45l-26-15L78,60z"/>
</g>
<g fill="none" stroke="#FFFFFF" stroke-width="3" stroke-linecap="round" stroke-miterlimit="10">
	<path d="M103.75,75L130,60"/>
	<path d="M103.75,105L130,90"/>
</g>
</svg>