<svg version="1.1" xmlns="http://www.w3.org/2000/svg" viewBox="0 0 415 55">
<g fill="#FFFFFF">
	<path d="M343.197,0c5.225,0,8.053,2.069,8.053,7.667v1.788c0,3.952-2.397,5.787-3.883,6.257
		c1.534,0.518,4.747,1.882,4.747,6.962v3.717c0,5.646-2.732,8.608-8.342,8.608H328V0H343.197z M337.684,13.313h1.822
		c1.437,0,2.157-0.847,2.157-2.494V9.126c0-1.694-0.479-2.446-2.157-2.446h-1.822V13.313z M337.684,28.084h2.108
		c1.678,0,2.206-0.894,2.206-2.587V22.44c0-1.741-0.527-2.588-2.206-2.588h-2.108V28.084z"/>
	<path d="M372.004,8.139h-9.107v4.657h7.813v8.28h-7.813v5.692h9.347V35h-19.031V0h18.792V8.139z"/>
	<path d="M381.015,30.437L380.392,35h-8.581l5.513-35h13.184l6.136,35h-9.588l-0.624-4.563H381.015z M385.425,23.193
		l-0.671-4.705c-0.527-3.528-0.768-6.351-1.007-8.656c-0.239,2.305-0.527,5.128-1.055,8.656l-0.671,4.705H385.425z"/>
	<path d="M394.195,7.95V0H415v7.95h-5.608V35h-9.588V7.95H394.195z"/>
</g>
<g fill="#FFFFFF">
	<path d="M0,0h27.192v18.259h28.48V0h27.192v55H55.672V35.41h-28.48V55H0V0z"/>
	<path d="M151.48,0v15.376h-37.426v4.287h36.997v15.081h-36.997v4.732h37.711V55H87.292V0H151.48z"/>
	<path d="M152.76,55l20.537-29.053L154.048,0h32.917l10.805,16.337L208.576,0h30.913l-18.105,26.021L241.707,55
		h-32.702l-12.093-17.151L184.746,55H152.76z"/>
	<path d="M296.869,48.42h-26.62L267.458,55H239.98l25.117-55h38.212L330,55h-30.341L296.869,48.42z M283.416,16.929
		l-6.369,15.229h12.881L283.416,16.929z"/>
</g>
</svg>
